<svg xmlns="http://www.w3.org/2000/svg" xmlns:xlink="http://www.w3.org/1999/xlink" viewBox="395 285 635 230">
  <defs>
    <clipPath id="c1"><rect x="0" width="227" y="0" height="415"></rect></clipPath>
    <clipPath id="c2"><path d="M 21 86 L 229.878906 86 L 229.878906 302 L 21 302 Z M 21 86 " clip-rule="nonzero"></path></clipPath>
    <clipPath id="c3"><rect x="0" width="230" y="0" height="415"></rect></clipPath>
    <clipPath id="c4"><rect x="0" width="209" y="0" height="415"></rect></clipPath>
  </defs>
  <g transform="matrix(1, 0, 0, 1, 391, 206)">
    <g clip-path="url(#c1)">
      <g fill="#39423d">
        <g transform="translate(1.334852, 301.42742)">
          <g><path d="M 152 0 L 152 -80.625 L 58.890625 -80.625 L 15.734375 -123.765625 L 15.734375 -172.28125 L 58.890625 -215.265625 L 83.21875 -215.265625 L 83.21875 -138.859375 L 182.171875 -138.859375 L 223.859375 -95.703125 L 223.859375 -42.984375 L 180.875 0 Z M 94.578125 -176.484375 L 94.578125 -215.265625 L 180.703125 -215.265625 L 218.015625 -177.78125 L 218.015625 -154.921875 L 152 -154.921875 L 152 -176.484375 Z M 15.734375 -64.5625 L 87.4375 -64.5625 L 87.4375 -38.9375 L 140.640625 -38.9375 L 140.640625 0 L 51.90625 0 L 15.734375 -42.984375 Z M 15.734375 -64.5625 "></path></g>
        </g>
      </g>
    </g>
  </g>
  <g transform="matrix(1, 0, 0, 1, 595, 206)">
    <g clip-path="url(#c3)">
      <g clip-path="url(#c2)">
        <g fill="#39423d">
          <g transform="translate(2.63026, 301.42742)">
            <g><path d="M 102.03125 0 L 102.03125 -42.984375 L 155.234375 -42.984375 L 155.234375 -172.28125 L 102.03125 -172.28125 L 102.03125 -215.265625 L 183.953125 -215.265625 L 227.109375 -172.28125 L 227.109375 -42.984375 L 183.953125 0 Z M 18.984375 -215.265625 L 90.671875 -215.265625 L 90.671875 0 L 18.984375 0 Z M 18.984375 -215.265625 "></path></g>
          </g>
        </g>
      </g>
    </g>
  </g>
  <g transform="matrix(1, 0, 0, 1, 815, 206)">
    <g clip-path="url(#c4)">
      <g fill="#39423d">
        <g transform="translate(1.812003, 301.42742)">
          <g><path d="M 34.546875 -215.265625 L 205.203125 -215.265625 L 205.203125 -42.984375 L 162.21875 0 L 133.5 0 L 133.5 -168.375 L 34.546875 -168.375 Z M 82.890625 -42.984375 L 122.15625 -42.984375 L 122.15625 0 L 51.578125 0 L 8.4375 -42.984375 L 8.4375 -90.1875 L 82.890625 -90.1875 Z M 82.890625 -42.984375 "></path></g>
        </g>
      </g>
    </g>
  </g>
</svg>
